<?xml version="1.0" standalone="no"?><!DOCTYPE svg PUBLIC "-//W3C//DTD SVG 1.1//EN" "http://www.w3.org/Graphics/SVG/1.1/DTD/svg11.dtd"><svg t="1560171478143" class="icon" style="" viewBox="0 0 1024 1024" version="1.1" xmlns="http://www.w3.org/2000/svg" p-id="1264" xmlns:xlink="http://www.w3.org/1999/xlink" width="200" height="200"><defs><style type="text/css"></style></defs><path d="M703 537.2c-20.9 0-37.9 17-37.9 37.9s17 37.9 37.9 37.9h50.5c20.9 0 37.9-17 37.9-37.9s-17-37.9-37.9-37.9H703zM703 385.7c-20.9 0-37.9 17-37.9 37.9s17 37.9 37.9 37.9h50.5c20.9 0 37.9-17 37.9-37.9s-17-37.9-37.9-37.9H703zM273.6 385.7c-20.9 0-37.9 17-37.9 37.9s17 37.9 37.9 37.9h151.6c20.9 0 37.9-17 37.9-37.9s-17-37.9-37.9-37.9H273.6zM273.6 234.1c-20.9 0-37.9 17-37.9 37.9s17 37.9 37.9 37.9h151.6c20.9 0 37.9-17 37.9-37.9s-17-37.9-37.9-37.9H273.6z" fill="#2c2c2c" p-id="1265"></path><path d="M892.4 183.6H614.6v-101c0-27.9-22.6-50.5-50.5-50.5H134.7c-27.9 0-50.5 22.6-50.5 50.5v909.3H943V234.1c0-27.9-22.7-50.5-50.6-50.5zM387.2 890.9h-75.8V739.3h75.8v151.6z m126.3-656.8v656.7H463V687.2c0-13.1-10.6-23.7-23.7-23.7h-180c-13.1 0-23.7 10.6-23.7 23.7v203.7h-50.5V133.1h328.4v101z m328.4 656.8H614.6V284.7h227.3v606.2z" fill="#2c2c2c" p-id="1266"></path></svg>